<?xml version="1.0" encoding="iso-8859-1"?>
<!-- Generator: Adobe Illustrator 19.0.0, SVG Export Plug-In . SVG Version: 6.00 Build 0)  -->
<svg xmlns="http://www.w3.org/2000/svg" xmlns:xlink="http://www.w3.org/1999/xlink" version="1.1" id="Capa_1" x="0px" y="0px" viewBox="0 0 462.5 462.5" style="enable-background:new 0 0 462.5 462.5;" xml:space="preserve" width="512" height="512">
<g>
	<polygon style="fill:#98D9D5;" points="392.376,37.5 372.376,235 392.376,462.5 432.376,462.5 432.376,37.5  "/>
	<polygon style="fill:#6DA8D6;" points="352.376,37.5 268.31,462.5 392.376,462.5 392.376,37.5  "/>
	<path style="fill:#F2484B;" d="M42.624,57.5l0-20L42.624,57.5z"/>
	<polygon style="fill:#F2484B;" points="42.624,37.5 57.729,37.5 50.124,27.5  "/>
	<path style="fill:#F2484B;" d="M57.624,57.5l0.105-20c-0.035,0.089-0.074,0.178-0.105,0.268V57.5z"/>
	<polygon style="fill:#C1E8E6;" points="30.124,37.5 30.124,462.5 268.31,462.5 278.31,388.434 352.376,378.434 352.376,37.5  "/>
	<path style="fill:#185F8D;" d="M292.376,330.5H90.124c-4.143,0-7.5,3.357-7.5,7.5s3.357,7.5,7.5,7.5h202.252   c4.143,0,7.5-3.357,7.5-7.5S296.519,330.5,292.376,330.5z"/>
	<path style="fill:#185F8D;" d="M292.376,285.5H90.124c-4.143,0-7.5,3.357-7.5,7.5s3.357,7.5,7.5,7.5h202.252   c4.143,0,7.5-3.357,7.5-7.5S296.519,285.5,292.376,285.5z"/>
	<path style="fill:#185F8D;" d="M292.376,240.5H90.124c-4.143,0-7.5,3.357-7.5,7.5s3.357,7.5,7.5,7.5h202.252   c4.143,0,7.5-3.357,7.5-7.5S296.519,240.5,292.376,240.5z"/>
	<path style="fill:#185F8D;" d="M292.376,195.5H90.124c-4.143,0-7.5,3.357-7.5,7.5s3.357,7.5,7.5,7.5h202.252   c4.143,0,7.5-3.357,7.5-7.5S296.519,195.5,292.376,195.5z"/>
	<path style="fill:#185F8D;" d="M90.124,165.5h202.252c4.143,0,7.5-3.357,7.5-7.5s-3.357-7.5-7.5-7.5H90.124   c-4.143,0-7.5,3.357-7.5,7.5S85.981,165.5,90.124,165.5z"/>
	<polygon style="fill:#98D9D5;" points="268.376,378.5 268.376,462.5 352.376,378.5  "/>
	<path style="fill:#F2484B;" d="M84.77,0c-21.014,0-39.101,15.666-42.07,36.441c-0.05,0.351-0.075,0.704-0.075,1.059h15.105   C60.101,24.6,71.534,15,84.77,15c15.163,0,27.5,12.337,27.5,27.5v55c0,6.893-5.607,12.5-12.5,12.5s-12.5-5.607-12.5-12.5v-30   c0-4.143-3.357-7.5-7.5-7.5s-7.5,3.357-7.5,7.5v30c0,15.163,12.337,27.5,27.5,27.5s27.5-12.337,27.5-27.5v-55   C127.27,19.065,108.204,0,84.77,0z"/>
</g>















</svg>
